<?xml version="1.0" encoding="UTF-8"?>
<svg width="570px" height="149px" viewBox="0 0 570 149" version="1.1" xmlns="http://www.w3.org/2000/svg" xmlns:xlink="http://www.w3.org/1999/xlink">
    <!-- Generator: Sketch 52.2 (67145) - http://www.bohemiancoding.com/sketch -->
    <title>Group</title>
    <desc>Created with Sketch.</desc>
    <defs>
        <linearGradient x1="0%" y1="50%" x2="100%" y2="50%" id="linearGradient-1">
            <stop stop-color="#00BFFF" offset="0%"></stop>
            <stop stop-color="#6619FF" offset="100%"></stop>
        </linearGradient>
    </defs>
    <g id="Design" stroke="none" stroke-width="1" fill="none" fill-rule="evenodd">
        <g id="00_brand_landing" transform="translate(-215.000000, -2350.000000)">
            <g id="01-NEW-EXODUS-LOGO" transform="translate(214.000000, 2244.000000)">
                <g id="Final_logo" transform="translate(0.000000, 105.000000)">
                    <g id="Exodus_logo_-_optimised_2_SHARP" transform="translate(0.366864, 0.181818)">
                        <g id="Group">
                            <path d="M494.947929,113.264545 C494.97814,114.770696 494.399261,116.225593 493.341771,117.30131 C492.28428,118.377026 490.837174,118.983029 489.326627,118.982727 L487.707692,118.982727 C486.219646,118.959532 484.803468,118.340517 483.777896,117.265005 C482.752324,116.189493 482.20353,114.74785 482.25503,113.264545 L482.25503,22.0539394 L471.698044,22.0539394 L471.698225,115.675152 C471.679873,119.133856 473.055639,122.454899 475.516437,124.892159 C477.977236,127.329418 481.316717,128.678519 484.784615,128.636364 L492.87929,128.636364 C499.944912,128.49551 505.587987,122.722921 505.549704,115.675152 L505.549898,22.0539394 L494.936686,22.0539394 L494.947929,113.264545 Z" id="Shape" fill="#252133"></path>
                            <path d="M357.743195,21 L349.637278,21 C346.088119,21.0236427 342.69461,22.4563101 340.20717,24.981191 C337.719731,27.5060719 336.343298,30.9151437 336.382249,34.4545455 L336.382249,115.406061 C336.50237,122.658407 342.365319,128.51042 349.637278,128.636364 L357.743195,128.636364 C364.838525,128.259012 370.424215,122.457994 370.514793,115.372424 L370.514793,34.4545455 C370.52501,27.2952485 364.911747,21.3818223 357.743195,21 Z M359.811834,113.264545 C359.86023,114.790551 359.292283,116.272048 358.235421,117.376636 C357.178559,118.481224 355.721274,119.116416 354.190533,119.139697 L352.571598,119.139697 C349.426411,118.990164 346.952721,116.404766 346.950296,113.264545 L346.950296,36.3718182 C346.952721,33.2315973 349.426411,30.6462001 352.571598,30.4966667 L354.190533,30.4966667 C355.721274,30.5199472 357.178559,31.1551396 358.235421,32.2597278 C359.292283,33.364316 359.86023,34.8458123 359.811834,36.3718182 L359.811834,113.264545 Z" id="Shape" fill="#252133"></path>
                            <path d="M424.805325,22.0539394 L404.321302,22.0539394 L404.321302,127.582424 L424.805325,127.582424 C432.103126,127.520807 437.983035,121.596749 437.970414,114.318485 L437.970414,35.3178788 C437.983035,28.0396149 432.103126,22.1155566 424.805325,22.0539394 Z M427.447337,111.302424 C427.447337,115.372424 424.805325,116.908485 421.826036,116.908485 L414.911834,116.908485 L414.911834,32.9072727 L421.826036,32.9072727 C424.78284,32.9072727 427.447337,34.4209091 427.447337,38.3339394 L427.447337,111.302424 Z" id="Shape" fill="#252133"></path>
                            <polygon id="Shape" fill="#252133" fill-rule="nonzero" points="306.027219 22.0539394 295.200592 22.0539394 285.442012 55.9818182 275.683432 22.0539394 264.856805 22.0539394 280.023077 74.8181818 264.856805 127.582424 275.683432 127.582424 285.442012 93.6545455 295.200592 127.582424 306.027219 127.582424 290.860947 74.8181818"></polygon>
                            <path d="M236.188166,116.874848 L214.085207,116.874848 L214.085207,77.6884848 L226.530769,77.6884848 C227.733103,77.6911907 228.792161,76.9001937 229.127811,75.7487879 L231.679882,66.8351515 L214.085207,66.8351515 L214.085207,32.9072727 L231.027811,32.9072727 C232.233281,32.9085418 233.293348,32.1122144 233.624852,30.9563636 L236.188166,22.0539394 L203.483432,22.0539394 L203.483432,127.582424 L231.106509,127.582424 C232.310717,127.579935 233.368772,126.785119 233.70355,125.631515 L236.188166,116.874848 Z" id="Shape" fill="#252133"></path>
                            <path d="M552.926036,60.6460606 C552.926036,60.6460606 548.361538,52.6630303 548.361538,46.4739394 L548.361538,36.3830303 C548.361538,33.2868885 550.878281,30.7769697 553.98284,30.7769697 C557.087399,30.7769697 559.604142,33.2868885 559.604142,36.3830303 L559.604142,48.5818182 L568.384615,46.070303 C569.541356,45.7364327 570.338332,44.6812464 570.340828,43.480303 L570.340828,35.0151515 C570.340828,27.7833333 564.595858,21.1457576 557.52426,21 L550.902367,21 C543.538462,21 537.636095,27.6375758 537.636095,35.0151515 L537.636095,45.8684848 C537.636095,45.8684848 537.197633,52.9545455 542.357988,62.6081818 L555.028402,86.8824242 C555.028402,86.8824242 559.592899,95.0224242 559.592899,101.200303 L559.592899,113.264545 C559.633259,116.360687 557.149234,118.903235 554.044675,118.943485 C550.940115,118.983735 548.390655,116.506445 548.350296,113.410303 L548.350296,95 L539.547337,97.5115152 C538.390597,97.8453855 537.593621,98.9005717 537.591124,100.101515 L537.591124,115.181818 C537.621345,122.337697 543.232445,128.233275 550.39645,128.636364 L557.029586,128.636364 C560.578745,128.612721 563.972254,127.180054 566.459693,124.655173 C568.947133,122.130292 570.323566,118.72122 570.284615,115.181818 L570.284615,101.727273 C570.284615,101.727273 570.73432,94.6412121 565.573964,84.9875758 L552.926036,60.6460606 Z" id="Shape" fill="#252133"></path>
                            <g id="logo-/-symbol-color" transform="translate(0.633136, 0.818182)" fill="url(#linearGradient-1)" fill-rule="nonzero">
                                <path d="M104.13825,74.2814877 L148.527813,118.681559 L132.86488,118.681559 C130.179965,118.679195 127.605879,117.610453 125.70854,115.710299 L84.3908026,74.2814877 L125.742296,32.8189119 C127.64515,30.9311351 130.218557,29.8748169 132.898636,29.8814167 L148.527813,29.8813859 L104.13825,74.2814877 Z M22.7855167,32.8189119 C20.882663,30.9311351 18.3092556,29.8748169 15.6291766,29.8814167 L0,29.8813859 L44.3895622,74.2814877 L0,118.681559 L15.662933,118.681559 C18.347848,118.679195 20.9219334,117.610453 22.819273,115.710299 L64.13701,74.2814877 L22.7855167,32.8189119 Z M74.2639063,84.4107815 L32.8111441,125.772064 C30.9238141,127.675369 29.8677459,130.249385 29.8743441,132.930099 L29.8743134,148.562975 L74.2639063,104.162904 L118.653499,148.562975 L118.653469,132.930099 C118.660067,130.249385 117.603999,127.675369 115.716669,125.772064 L74.2639063,84.4107815 Z M74.2639063,64.152194 L115.716669,22.790911 C117.603999,20.8876069 118.660067,18.3135901 118.653469,15.6328767 L118.653499,0 L74.2639063,44.4000711 L29.8743134,0 L29.8743441,15.6328767 C29.8677459,18.3135901 30.9238141,20.8876069 32.8111441,22.790911 L74.2639063,64.152194 Z" id="Exodus_symbol_compound_"></path>
                            </g>
                        </g>
                    </g>
                </g>
            </g>
        </g>
    </g>
</svg>